<svg xmlns="http://www.w3.org/2000/svg" viewBox="0 0 620 680" shape-rendering="crispEdges" role="img" aria-label="Tung Lab mascot pointing right">
  <rect x="117" y="7" width="247" height="30" fill="#241f1b" />
  <rect x="87" y="37" width="309" height="31" fill="#241f1b" />
  <rect x="56" y="68" width="371" height="61" fill="#241f1b" />
  <rect x="304" y="129" width="123" height="31" fill="#241f1b" />
  <rect x="56" y="129" width="154" height="31" fill="#241f1b" />
  <rect x="211" y="130" width="92" height="31" fill="#e6b289" />
  <rect x="365" y="160" width="62" height="32" fill="#241f1b" />
  <rect x="148" y="161" width="216" height="31" fill="#e6b289" />
  <rect x="56" y="160" width="92" height="32" fill="#241f1b" />
  <rect x="56" y="192" width="60" height="31" fill="#241f1b" />
  <rect x="117" y="192" width="279" height="31" fill="#e6b289" />
  <rect x="148" y="224" width="31" height="29" fill="#241f1b" />
  <rect x="304" y="224" width="30" height="29" fill="#241f1b" />
  <rect x="335" y="223" width="61" height="31" fill="#e6b289" />
  <rect x="180" y="223" width="123" height="31" fill="#e6b289" />
  <rect x="87" y="224" width="61" height="30" fill="#e6b289" />
  <rect x="87" y="254" width="309" height="30" fill="#e6b289" />
  <rect x="56" y="223" width="30" height="93" fill="#241f1b" />
  <rect x="211" y="285" width="61" height="31" fill="#241f1b" />
  <rect x="87" y="284" width="123" height="32" fill="#e6b289" />
  <rect x="396" y="192" width="31" height="124" fill="#241f1b" />
  <rect x="272" y="284" width="124" height="32" fill="#e6b289" />
  <rect x="117" y="316" width="247" height="31" fill="#e6b289" />
  <rect x="365" y="316" width="31" height="31" fill="#241f1b" />
  <rect x="87" y="316" width="29" height="31" fill="#241f1b" />
  <rect x="117" y="348" width="31" height="29" fill="#241f1b" />
  <rect x="148" y="347" width="186" height="31" fill="#e6b289" />
  <rect x="335" y="348" width="29" height="30" fill="#241f1b" />
  <rect x="56" y="378" width="30" height="30" fill="#241f1b" />
  <rect x="87" y="379" width="92" height="29" fill="#cc6b4e" />
  <rect x="304" y="379" width="92" height="29" fill="#cc6b4e" />
  <rect x="180" y="379" width="123" height="30" fill="#fbf2ef" />
  <rect x="396" y="378" width="92" height="31" fill="#241f1b" />
  <rect x="396" y="409" width="154" height="31" fill="#cc6b4e" />
  <rect x="550" y="409" width="31" height="31" fill="#241f1b" />
  <rect x="488" y="440" width="62" height="31" fill="#cc6b4e" />
  <rect x="550" y="440" width="31" height="31" fill="#e6b289" />
  <rect x="581" y="440" width="31" height="31" fill="#241f1b" />
  <rect x="56" y="409" width="92" height="31" fill="#cc6b4e" />
  <rect x="148" y="409" width="186" height="31" fill="#fbf2ef" />
  <rect x="56" y="440" width="60" height="31" fill="#cc6b4e" />
  <rect x="24" y="409" width="31" height="155" fill="#241f1b" />
  <rect x="56" y="472" width="60" height="92" fill="#e6b289" />
  <rect x="117" y="440" width="247" height="124" fill="#fbf2ef" />
  <rect x="87" y="564" width="309" height="31" fill="#fbf2ef" />
  <rect x="396" y="564" width="31" height="32" fill="#241f1b" />
  <rect x="56" y="564" width="30" height="32" fill="#241f1b" />
  <rect x="56" y="596" width="371" height="30" fill="#241f1b" />
  <rect x="56" y="626" width="154" height="30" fill="#241f1b" />
  <rect x="272" y="626" width="155" height="30" fill="#241f1b" />
</svg>
